<?xml version="1.0" encoding="UTF-8" standalone="no"?>
<svg
   width="404.08328mm"
   height="288.07782mm"
   viewBox="0 0 404.08328 288.07782"
   version="1.1"
   id="svg8"
   sodipodi:docname="IndLetters4Wheeler.svg"
   inkscape:version="1.1 (c68e22c387, 2021-05-23)"
   xmlns:inkscape="http://www.inkscape.org/namespaces/inkscape"
   xmlns:sodipodi="http://sodipodi.sourceforge.net/DTD/sodipodi-0.dtd"
   xmlns="http://www.w3.org/2000/svg"
   xmlns:svg="http://www.w3.org/2000/svg"
   xmlns:rdf="http://www.w3.org/1999/02/22-rdf-syntax-ns#"
   xmlns:cc="http://creativecommons.org/ns#"
   xmlns:dc="http://purl.org/dc/elements/1.1/">
  <defs
     id="defs2">
    <rect
       x="187.73499"
       y="-73.243652"
       width="5.2397432"
       height="28.418524"
       id="rect557" />
  </defs>
  <sodipodi:namedview
     id="base"
     pagecolor="#ffffff"
     bordercolor="#666666"
     borderopacity="1.0"
     inkscape:pageopacity="0.0"
     inkscape:pageshadow="2"
     inkscape:zoom="0.20489065"
     inkscape:cx="1095.7064"
     inkscape:cy="749.18011"
     inkscape:document-units="mm"
     inkscape:current-layer="layer1"
     inkscape:document-rotation="0"
     showgrid="false"
     inkscape:window-width="1366"
     inkscape:window-height="705"
     inkscape:window-x="-8"
     inkscape:window-y="-8"
     inkscape:window-maximized="1"
     showguides="false"
     inkscape:pagecheckerboard="0" />
  <metadata
     id="metadata5">
    <rdf:RDF>
      <cc:Work
         rdf:about="">
        <dc:format>image/svg+xml</dc:format>
        <dc:type
           rdf:resource="http://purl.org/dc/dcmitype/StillImage" />
      </cc:Work>
    </rdf:RDF>
  </metadata>
  <g
     inkscape:label="Layer 1"
     inkscape:groupmode="layer"
     id="layer1"
     transform="translate(72.956291,83.952628)">
    <path
       d="m -9.6151318,-83.688735 h -8.7203102 c -0.27785,-1e-4 -0.53999,0.12902 -0.70943,0.34925 l -9.17978,11.93339 c -0.12039,0.15639 -0.18555,0.34834 -0.18555,0.54574 v 6.21529 c -2.1e-4,0.23718 0.094,0.46472 0.26153,0.6326 0.16766,0.16782 0.39619,0.26223 0.63348,0.2624 h 7.95557 c 0.42224,2.1e-4 0.82709,0.168256 1.12553,0.467016 0.29833,0.29872 0.46588,0.70178 0.4656,1.12412 v 42.015405 c -2.1e-4,0.2372 0.094,0.46473 0.26154,0.6326 0.16765,0.16782 0.39617,0.2622 0.63348,0.26242 h 7.4583402 c 0.23718,10e-5 0.46479,-0.094 0.63256,-0.26165 0.16787,-0.16756 0.26223,-0.39617 0.26245,-0.63337 v -62.650191 c 10e-5,-0.23729 -0.094,-0.46483 -0.26154,-0.63267 -0.16769,-0.16787 -0.39629,-0.26224 -0.63347,-0.26235 z"
       style="fill:#ff0000;stroke:#e30016;stroke-width:0.0757769;stroke-linecap:butt;stroke-linejoin:bevel;stroke-dasharray:none"
       id="1" />
    <path
       d="M 34.614604,-28.722924 H 16.168408 c -0.58482,-2.1e-4 -1.12214,-0.32044 -1.39988,-0.83506 -0.27785,-0.51462 -0.25151,-1.13954 0.0693,-1.62852 l 17.998806,-27.451495 c 3.75375,-5.721076 3.5334,-13.184656 -0.54279,-18.680686 -4.07604,-5.49603 -11.157856,-7.86254 -17.722356,-5.93133 -6.5643798,1.93134 -11.2274698,7.763 -11.6779598,14.59082 -0.0162,0.24694 0.0707,0.48978 0.23987,0.67045 0.16916,0.18061 0.40575,0.28315 0.65326,0.28322 h 7.4583898 c 0.44961,2.1e-4 0.82958,-0.33412 0.88757,-0.77994 0.37668,-2.89694 2.48592,-5.26601 5.3209,-5.97109 2.83499,-0.70497 5.80992,0.39581 7.499576,2.77889 1.68969,2.38303 1.74873,5.55453 0.14537,7.996516 L 3.0383282,-30.062254 c -0.0957,0.14587 -0.14669,0.3165 -0.14669,0.49104 v 9.20169 c -1.1e-4,0.23715 0.094,0.4647 0.26154,0.63256 0.16769,0.16786 0.39628,0.26224 0.63348,0.26244 H 34.614584 c 0.23731,8e-5 0.46485,-0.094 0.63268,-0.26163 0.16787,-0.16759 0.26224,-0.39622 0.26235,-0.63337 v -7.45843 c 2.1e-4,-0.23725 -0.094,-0.4648 -0.26155,-0.63266 -0.16765,-0.16788 -0.39617,-0.26224 -0.63348,-0.26231 z"
       style="fill:#ff0000;stroke:#e30016;stroke-width:0.0757773;stroke-linecap:butt;stroke-linejoin:bevel;stroke-dasharray:none"
       id="2" />
    <path
       d="m 73.347244,-49.298724 c -0.44202,-0.57321 -0.44242,-1.37131 0,-1.94422 2.20261,-2.853645 3.39741,-6.359055 3.39762,-9.963905 v -4.948926 c 0.005,-8.75487 -6.91575,-15.95591 -15.66295,-16.32108 -8.74729,-0.36523 -16.22688,6.25356 -16.95162,14.9784 -0.0207,0.24918 0.0642,0.49581 0.23357,0.67977 0.16937,0.18408 0.40824,0.28869 0.65833,0.2888 h 7.4583 c 0.43817,2.1e-4 0.81218,-0.31781 0.88325,-0.75022 0.60175,-3.65765 3.90249,-6.24169 7.59693,-5.9388 3.69445,0.30283 6.53787,3.383 6.53589,7.08979 v 4.173666 c 0,1.87372 -0.74664,3.67027 -2.0724,4.99436 -1.32582,1.3241 -3.11431,2.06737 -4.98813,2.06617 h -4.97223 c -0.23716,-2.1e-4 -0.4647,0.0939 -0.63256,0.26154 -0.16786,0.16765 -0.26223,0.39617 -0.26241,0.63343 v 7.458325 c -1.1e-4,0.23715 0.094,0.46469 0.26164,0.63255 0.16754,0.16788 0.39617,0.26224 0.63333,0.26246 h 4.97223 c 1.87382,0 3.67028,0.74661 4.99436,2.07241 1.3242,1.32578 2.06736,3.11427 2.06617,4.98809 v 4.17359 c -0.004,3.70688 -2.84112,6.79093 -6.53589,7.08987 -3.69472,0.29883 -6.99917,-2.28056 -7.59693,-5.9389 -0.0707,-0.43239 -0.44508,-0.74992 -0.88325,-0.75013 h -7.4583 c -0.25009,-9e-5 -0.48885,0.10475 -0.65833,0.28869 -0.16945,0.18397 -0.25417,0.43059 -0.23357,0.67981 0.71449,8.72573 8.20391,15.33346 16.95162,14.97847 8.74758,-0.35513 15.65787,-7.5663 15.66295,-16.32119 v -4.94893 c 2.8e-4,-3.60474 -1.1955,-7.10992 -3.39762,-9.96389 z"
       style="fill:#ff0000;stroke:#e30016;stroke-width:0.0757764;stroke-linecap:butt;stroke-linejoin:bevel;stroke-dasharray:none"
       id="3" />
    <path
       d="m 117.22956,-43.885644 h -7.45834 c -0.2373,-2.1e-4 -0.46481,0.0939 -0.63267,0.26153 -0.16788,0.16766 -0.26224,0.39619 -0.26235,0.63348 v 6.46391 c -2.8e-4,0.42222 -0.16835,0.82706 -0.46707,1.1254 -0.29876,0.29844 -0.70179,0.46591 -1.12403,0.4657 h -8.452806 c -0.53988,-1e-4 -1.0425,-0.27329 -1.33574,-0.72654 -0.29326,-0.45315 -0.33704,-1.02349 -0.11589,-1.51592 l 20.068856,-44.726921 c 0.12424,-0.27682 0.0996,-0.59804 -0.0652,-0.85273 -0.16488,-0.25476 -0.44789,-0.4086 -0.75131,-0.4086 h -8.17475 c -0.35243,-1e-4 -0.67225,0.20702 -0.81664,0.52855 l -22.056456,49.156561 c -0.0517,0.11523 -0.0784,0.24013 -0.0784,0.36632 v 6.53265 c -1.8e-4,0.23718 0.0939,0.46468 0.26153,0.63256 0.16769,0.16786 0.39621,0.26223 0.63348,0.26244 h 20.883416 c 0.42224,2.1e-4 0.82706,0.16826 1.1254,0.46698 0.29844,0.29876 0.46592,0.70181 0.4657,1.12412 v 4.47502 c -2.1e-4,0.2372 0.0939,0.46473 0.26154,0.6326 0.16765,0.16782 0.39618,0.2622 0.63348,0.26242 h 7.45835 c 0.23718,10e-5 0.46472,-0.094 0.63256,-0.26165 0.16786,-0.16756 0.26223,-0.39617 0.26244,-0.63337 v -23.3695 c 1.1e-4,-0.23729 -0.094,-0.46484 -0.26165,-0.63267 -0.16765,-0.16786 -0.39617,-0.26224 -0.63335,-0.26234 z"
       style="fill:#ff0000;stroke:#e30016;stroke-width:0.0757769;stroke-linecap:butt;stroke-linejoin:bevel;stroke-dasharray:none"
       id="4" />
    <path
       d="m 128.87492,-81.174045 v 26.850156 c -7e-4,1.02798 0.40702,2.014055 1.13346,2.741415 0.72644,0.72725 1.71691,1.13627 2.74488,1.13693 h 12.43065 c 1.87373,0 3.67032,0.74665 4.99443,2.07244 1.32409,1.32581 2.06738,3.11433 2.06619,4.98816 v 9.39458 c -0.003,3.70684 -2.84127,6.79093 -6.53606,7.08984 -3.69477,0.29886 -6.99915,-2.28054 -7.59699,-5.93893 -0.0707,-0.43239 -0.44504,-0.74992 -0.88319,-0.75013 h -7.45836 c -0.25013,-1.1e-4 -0.48897,0.10475 -0.65845,0.28869 -0.16935,0.18398 -0.25406,0.4306 -0.23358,0.67978 0.71462,8.72582 8.204,15.33365 16.95181,14.97862 4.21138,-0.17302 8.19504,-1.96989 11.11387,-5.01073 2.91882,-3.04083 4.54881,-7.09569 4.54932,-11.31058 v -9.42114 c 0.003,-4.32266 -1.71186,-8.46941 -4.76652,-11.527945 -3.05466,-3.05854 -7.2198,-4.77833 -11.54247,-4.78104 h -5.46949 c -0.42224,-2.8e-4 -0.82717,-0.16825 -1.12551,-0.46708 -0.29844,-0.29872 -0.46592,-0.70178 -0.4656,-1.12403 v -9.944516 c 2.1e-4,-0.42232 0.16825,-0.82717 0.46697,-1.1255 0.29876,-0.29844 0.7019,-0.4659 1.12414,-0.4656 h 20.88348 c 0.23716,1e-4 0.4647,-0.094 0.63256,-0.26165 0.16787,-0.16755 0.26225,-0.39618 0.26244,-0.63337 v -7.45837 c 8e-5,-0.23729 -0.094,-0.46479 -0.26163,-0.63267 -0.16758,-0.16786 -0.39621,-0.26223 -0.63337,-0.26234 h -30.82797 c -0.23729,-2.1e-4 -0.46484,0.0939 -0.63267,0.26153 -0.16787,0.16767 -0.26223,0.39619 -0.26234,0.63348 z"
       style="fill:#ff0000;stroke:#e30016;stroke-width:0.0757771;stroke-linecap:butt;stroke-linejoin:bevel;stroke-dasharray:none"
       id="5" />
    <path
       id="6"
       style="fill:#ff0000;stroke:#e30016;stroke-width:0.0757767;stroke-linecap:butt;stroke-linejoin:bevel;stroke-dasharray:none"
       d="m 186.87736,-83.143365 c -8.89932,0.13935 -16.04167,7.41049 -16.04713,16.311 v 31.818241 c -0.003,4.32268 1.71155,8.46916 4.7662,11.52767 3.05459,3.0585 7.21937,4.7785 11.54199,4.78127 4.32265,0.004 8.46988,-1.71224 11.52829,-4.76688 3.05849,-3.05465 4.77778,-7.21938 4.78055,-11.54206 v -4.17693 c 7e-4,-5.10279 -2.39114,-9.91452 -6.45721,-12.9974 -4.06617,-3.082885 -9.34582,-4.082735 -14.25876,-2.704455 -0.62957,0.1766 -1.30503,0.049 -1.82603,-0.34602 -0.52096,-0.39498 -0.82711,-1.01048 -0.82701,-1.66433 v -9.924996 c 0.003,-3.81887 3.02738,-6.94599 6.84433,-7.06501 3.81707,-0.11894 7.0387,2.8048 7.27876,6.61621 0.0297,0.47097 0.42084,0.83839 0.89279,0.83867 h 7.45828 c 0.24234,0 0.47483,-0.0985 0.64339,-0.27271 0.16866,-0.1741 0.25932,-0.40938 0.25146,-0.65161 -0.28391,-8.89591 -7.67063,-15.91986 -16.5699,-15.78066 z m 0.26106,36.892101 c 1.87137,10e-4 3.67467,0.74583 4.99708,2.06996 1.3225,1.3241 2.06484,3.11881 2.06378,4.99025 v 4.17693 c -10e-5,1.23909 -0.32591,2.45702 -0.94556,3.53011 -0.61965,1.07322 -1.51132,1.965 -2.58453,2.58454 -2.18397,1.26035 -4.87734,1.26126 -7.06086,0 -2.18348,-1.26126 -3.53078,-3.593 -3.53008,-6.11465 v -4.17693 c 0.001,-1.87144 0.74582,-3.6747 2.06995,-4.9971 1.32409,-1.32242 3.11879,-2.06311 4.99022,-2.06311 z" />
    <path
       d="m 244.68799,-74.202795 v -7.55661 c 1.7e-4,-0.23729 -0.094,-0.46483 -0.26157,-0.63267 -0.16766,-0.16786 -0.39618,-0.26223 -0.63344,-0.26234 h -30.8279 c -0.23719,-2.1e-4 -0.46483,0.0939 -0.63259,0.26153 -0.16787,0.16766 -0.26224,0.39619 -0.26242,0.63348 v 7.45834 c -10e-5,0.2372 0.0939,0.4647 0.26154,0.63257 0.16765,0.16786 0.39628,0.26224 0.63347,0.26245 h 18.39729 c 0.69462,9e-5 1.34339,0.34485 1.73153,0.92086 0.38822,0.57597 0.46502,1.30659 0.20446,1.95048 l -20.66575,51.089861 c -0.11156,0.27578 -0.0787,0.58924 0.0876,0.83593 0.16625,0.24673 0.44459,0.39461 0.74206,0.39472 h 8.04537 c 0.36457,10e-5 0.69293,-0.22155 0.82975,-0.55949 l 22.28521,-55.093581 c 0.0431,-0.10661 0.0654,-0.2206 0.0654,-0.33553 z"
       style="fill:#ff0000;stroke:#e30016;stroke-width:0.0757769;stroke-linecap:butt;stroke-linejoin:bevel;stroke-dasharray:none"
       id="7" />
    <path
       id="D"
       style="fill:#ff0000;stroke:#e30016;stroke-width:0.0757767;stroke-linecap:butt;stroke-linejoin:bevel;stroke-dasharray:none"
       d="m 63.747494,-8.3240536 c -0.23726,-1.1e-4 -0.46455,0.0942 -0.63242,0.26174 -0.16787,0.16765 -0.26231,0.39593 -0.26241,0.63312 V 55.220626 c -1.8e-4,0.23726 0.094,0.46526 0.26174,0.63312 0.1677,0.16787 0.39583,0.26236 0.63309,0.26242 h 16.40829 c 4.059,0.004 7.95333,-1.607993 10.82537,-4.47636 2.87197,-2.86839 4.48675,-6.779209 4.48935,-10.838359 V 6.9906662 c 0.004,-4.059 -1.60727,-7.95330984 -4.47567,-10.8253498 -2.86836,-2.87207 -6.78005,-4.48677 -10.83905,-4.48937 z m 9.94489,9.24802976 h 6.4634 c 1.6078,9.8e-4 3.15726,0.64113004 4.29342,1.77876004 1.13616,1.13752 1.77261,2.68013 1.77261,4.28793 V 40.801447 c -10e-4,1.60785 -0.64045,3.15725 -1.77808,4.29341 -1.13757,1.13616 -2.68015,1.772589 -4.28795,1.772589 h -6.4634 c -0.42176,-2.8e-4 -0.82842,-0.16828 -1.12644,-0.46662 -0.29802,-0.298429 -0.46554,-0.702629 -0.46526,-1.124389 V 2.5156762 c 2.1e-4,-0.42171 0.16829,-0.82844 0.46662,-1.12645 0.29841,-0.29806 0.70332,-0.46557004 1.12508,-0.46525004 z" />
    <path
       d="m 42.519594,38.966137 c 0.0154,-0.4834 0.41099,-0.86716 0.8946,-0.86688 h 7.45834 c 0.23996,0 0.46967,0.0963 0.63796,0.26733 0.16826,0.17102 0.26084,0.40225 0.25694,0.6422 -0.15075,8.960559 -7.47845,16.123388 -16.43991,16.045328 -8.96146,-0.0782 -16.183416,-7.347609 -16.177876,-16.309448 V 6.9244262 c 0.005,-8.9617798 7.216316,-16.2424398 16.177876,-16.3094498 8.96157,-0.067 16.30033,7.08466 16.43991,16.0453098 0.004,0.23997 -0.0886,0.47126 -0.25694,0.64221 -0.16829,0.17106 -0.398,0.26732 -0.63796,0.26732 h -7.45834 c -0.48361,-3.1e-4 -0.87957,-0.38348 -0.8946,-0.86677 -0.11906,-3.85297 -3.3159,-6.89769004 -7.17028,-6.83932004 -3.85427,0.0583 -6.94889,3.20691004 -6.95127,7.06168004 V 38.743687 c -0.004,3.85475 3.09711,6.99863 6.95127,7.06166 3.85428,0.0631 7.04655,-2.98644 7.17028,-6.83921 z"
       style="fill:#ff0000;stroke:#e30016;stroke-width:0.0757769;stroke-linecap:butt;stroke-linejoin:bevel;stroke-dasharray:none"
       id="C" />
    <path
       id="A"
       style="fill:#ff0000;stroke:#e30016;stroke-width:0.0757767;stroke-linecap:butt;stroke-linejoin:bevel;stroke-dasharray:none"
       d="m -58.939122,-9.6319236 c -0.43726,-2.1e-4 -0.81043,0.31686 -0.88253,0.74823 l -10.44163,62.6498196 c -0.0432,0.25936 0.0295,0.52491 0.19939,0.725624 0.16994,0.20077 0.42024,0.31656 0.68314,0.31656 h 7.56108 c 0.43726,2.1e-4 0.81123,-0.31694 0.88322,-0.748234 l 1.39368,-8.364139 c 0.12822,-0.76763 0.7915,-1.32958 1.56977,-1.32927 h 8.01263 c 0.77815,0 1.4415,0.56153 1.56909,1.32927 l 1.39437,8.364139 c 0.0717,0.431294 0.44526,0.748064 0.88252,0.748234 h 7.56109 c 0.263,0 0.5132,-0.11595 0.68314,-0.31656 0.17004,-0.200604 0.24322,-0.466264 0.20008,-0.725624 l -10.44164,-62.6498196 c -0.0717,-0.43137 -0.44595,-0.74802 -0.88321,-0.74823 z m 4.97244,27.8640096 c 1.06157,4.9e-4 1.73503,0.77876 1.90894,1.82603 l 1.59513,13.207071 c 0.0768,0.46123 -0.0534,0.9335 -0.35562,1.29022 -0.3023,0.35671 -0.74658,0.56261 -1.21416,0.56254 h -3.86927 c -0.46758,-1e-4 -0.91197,-0.20572 -1.21417,-0.56254 -0.30224,-0.35682 -0.43183,-0.8291 -0.35492,-1.29022 l 1.6054,-13.207071 c 0.13493,-0.43368 0.33744,-0.93891 0.64682,-1.29021 0.39229,-0.33237 0.73765,-0.53582 1.25185,-0.53582 z" />
    <path
       id="0"
       style="fill:#ff0000;stroke:#e30016;stroke-width:0.0757767;stroke-linecap:butt;stroke-linejoin:bevel;stroke-dasharray:none"
       d="m -54.383312,-83.579675 c -4.32264,-0.004 -8.46981,1.71159 -11.52835,4.7662 -3.0585,3.05465 -4.77788,7.22006 -4.78058,11.54274 v 31.822341 c -0.003,4.32264 1.71155,8.46915 4.76619,11.52767 3.05462,3.05852 7.21941,4.77849 11.54205,4.78126 4.32264,0.004 8.46981,-1.71223 11.52835,-4.76688 3.0585,-3.05464 4.77846,-7.21937 4.78127,-11.54205 v -31.822341 c 0.003,-4.32268 -1.71224,-8.46916 -4.76688,-11.52766 -3.05462,-3.05851 -7.21941,-4.77861 -11.54205,-4.78128 z m 0,9.24804 c 1.87133,0.001 3.674,0.74588 4.99642,2.06996 1.32239,1.32414 2.06484,3.1195 2.06379,4.99094 v 31.822341 c -2.1e-4,1.87208 -0.74398,3.66871 -2.06791,4.99231 -1.32388,1.3236 -3.12028,2.06812 -4.9923,2.06791 -1.87144,-0.001 -3.67469,-0.74577 -4.9971,-2.06997 -1.3224,-1.32408 -2.06485,-3.11881 -2.0638,-4.99025 v -31.822341 c 10e-4,-1.87144 0.74588,-3.67469 2.06996,-4.9971 1.32414,-1.3224 3.1195,-2.0638 4.99094,-2.0638 z" />
    <path
       id="9"
       style="fill:#ff0000;stroke:#e30016;stroke-width:0.0757775;stroke-linecap:butt;stroke-linejoin:bevel;stroke-dasharray:none"
       d="m 312.00907,-80.804675 c -4.32265,-0.004 -8.46996,1.7116 -11.52847,4.76625 -3.05855,3.05468 -4.77797,7.22014 -4.78063,11.54286 v 4.176286 c -0.001,5.10274 2.3911,9.914615 6.45731,12.997545 4.06611,3.08291 9.34662,4.08289 14.25969,2.70448 0.62951,-0.17661 1.30441,-0.0483 1.82537,0.34671 0.52101,0.39498 0.82714,1.01049 0.82704,1.66434 v 9.92511 c -0.003,3.81902 -3.02746,6.94617 -6.84447,7.06509 -3.81697,0.11894 -7.03812,-2.8056 -7.27818,-6.61697 -0.0297,-0.47108 -0.42155,-0.83781 -0.8935,-0.83799 h -7.45839 c -0.24245,-1e-4 -0.47419,0.0986 -0.64272,0.27271 -0.16858,0.17411 -0.26002,0.40939 -0.25215,0.65162 0.28401,8.896 7.67074,15.91935 16.57017,15.78014 8.89935,-0.13924 16.04258,-7.40998 16.04805,-16.31048 v -31.818591 c 0.003,-4.32272 -1.71227,-8.46994 -4.76693,-11.52847 -3.05466,-3.05853 -7.21947,-4.77797 -11.54219,-4.78064 z m 0,9.24882 c 1.21922,-1.1e-4 2.43841,0.31494 3.53016,0.94558 2.18355,1.26127 3.53049,3.59307 3.53015,6.11471 v 4.176286 c -0.001,1.87136 -0.7459,3.67475 -2.06999,4.99716 -1.32421,1.32243 -3.11893,2.06382 -4.99032,2.06382 -1.87144,-10e-4 -3.67471,-0.74585 -4.99715,-2.06999 -1.32243,-1.32411 -2.06488,-3.11963 -2.06382,-4.99099 v -4.176286 c 0,-1.23921 0.32672,-2.45769 0.94626,-3.53083 0.61966,-1.07312 1.51065,-1.96434 2.58388,-2.58388 1.09205,-0.63018 2.31162,-0.94546 3.53083,-0.94558 z" />
    <path
       id="8"
       style="fill:#ff0000;stroke:#e30016;stroke-width:0.0757783;stroke-linecap:butt;stroke-linejoin:bevel;stroke-dasharray:none"
       d="m 270.67455,-82.614935 c -2.81624,2.6e-4 -5.63287,0.72814 -8.15532,2.18375 -5.04484,2.91129 -8.15266,8.29956 -8.15396,14.12415 v 4.071496 c -3.1e-4,3.97138 1.45042,7.80906 4.07698,10.787875 0.53045,0.60196 0.53105,1.5034 0,2.10496 -2.62705,2.97833 -4.07659,6.81578 -4.07698,10.7872 v 4.0715 c -0.003,4.32273 1.71163,8.46931 4.7663,11.5279 3.05471,3.05857 7.21953,4.77861 11.54229,4.78138 4.32273,0.004 8.47003,-1.71163 11.52859,-4.7663 3.0586,-3.05471 4.77798,-7.22025 4.78068,-11.54298 v -4.0715 c 3.5e-4,-3.97142 -1.45038,-7.80838 -4.07697,-10.7872 -0.53034,-0.60205 -0.53094,-1.50349 0,-2.10496 2.62719,-2.978425 4.07666,-6.816495 4.07697,-10.787875 v -4.071496 c 10e-4,-5.82459 -3.11099,-11.21079 -8.15463,-14.12415 -2.52182,-1.45665 -5.33771,-2.18401 -8.15395,-2.18375 z m -6.9e-4,9.24754 c 1.87148,0.001 3.67477,0.7459 4.99721,2.07001 1.32244,1.32412 2.06489,3.11887 2.06384,4.99035 v 4.227036 c -0.001,1.87137 -0.74585,3.67408 -2.07001,4.99652 -1.32411,1.32243 -3.11956,2.06384 -4.99104,2.06384 -1.8714,-0.001 -3.67408,-0.74585 -4.99652,-2.07 -1.32243,-1.32413 -2.06489,-3.11899 -2.06384,-4.99036 v -4.227036 c 0.001,-1.87148 0.74589,-3.67474 2.07001,-4.99721 1.32416,-1.32244 3.11895,-2.06315 4.99035,-2.06315 z m 0,27.596671 c 3.89711,0.002 7.06357,3.16322 7.06105,7.06036 v 4.22636 c 0,1.23922 -0.32664,2.45694 -0.94627,3.53018 -0.61966,1.07313 -1.5107,1.96503 -2.58391,2.5846 -2.18406,1.26037 -4.87751,1.26128 -7.06105,0 -2.18353,-1.26129 -3.53053,-3.59312 -3.53018,-6.11478 v -4.22636 c 0.002,-3.89714 3.16336,-7.06434 7.06036,-7.06036 z" />
    <path
       d="m -49.270272,127.59746 c -3.13135,-5.2716 -6.26169,-10.54131 -9.39079,-15.80933 -0.24887,-0.40922 -0.65865,-0.7675 -1.17812,-0.66766 -0.22884,0.0439 -0.60603,0.24609 -0.60603,0.51537 0,4.97826 0,9.95641 0,14.9347 v 0.0232 0.0232 c -0.0797,1.33648 -1.20632,2.66797 -2.63591,2.65117 -1.68721,-0.003 -3.37228,-0.005 -5.05949,-0.008 l -1.51929,-0.3599 c -0.79756,-0.46212 -1.22028,-1.34037 -1.21082,-2.44657 -3.1e-4,-9.63075 0,-19.25982 0,-28.890671 v -0.79577 h 0.008 c 3.2e-4,-9.585783 0,-19.17149 0,-28.757295 -0.0403,-1.592095 1.28985,-3.067937 2.95212,-3.042055 1.52121,-0.004 3.04243,-0.0053 4.56368,-0.008 h 0.009 l 0.0106,1.73e-4 c 0.005,1.06e-4 0.0133,3.18e-4 0.019,0 1.74942,0.05303 2.82928,1.280763 2.87176,2.953724 1.1e-4,0.004 2.1e-4,0.008 2.8e-4,0.01326 l 2.1e-4,0.0093 v 0.0093 c 0,4.878893 0,9.75787 0,14.636777 0,0.275525 0.3699,0.478644 0.60624,0.523898 0.5154,0.09896 0.92539,-0.256722 1.17447,-0.662081 3.06659,-5.162852 6.13336,-10.325633 9.19992,-15.488501 l 0.007,-0.01061 0.007,-0.0093 c 0.004,-0.0053 0.008,-0.01193 0.0133,-0.02002 0.16242,-0.250974 0.26399,-0.522423 0.44423,-0.778373 0.43563,-0.618087 1.04422,-1.006609 1.79576,-1.150057 0.0256,-0.0053 0.0508,-0.0093 0.0765,-0.01472 l 0.0732,-0.01445 h 0.0748 c 0.026,0 0.0525,0 0.0795,0 0.0538,0 0.10793,-1.06e-4 0.16172,0 v 1.06e-4 c 1.72785,0 3.45579,0.004 5.18373,0.004 1.2485,-0.06205 2.57564,0.175057 3.10915,1.445889 0.35032,0.832537 0.13299,1.673837 -0.26469,2.440566 -0.009,0.0179 0,0 -0.008,0.01512 l -0.008,0.01511 -0.008,0.01472 c -5.19158,9.155301 -10.38418,18.3126 -15.57791,27.471649 -0.27689,0.47567 -0.38115,0.97055 -0.0465,1.44442 0.009,0.013 0.0183,0.0256 0.0273,0.0387 l 0.0221,0.0316 0.0194,0.0337 c 5.1829,9.140181 10.36583,18.280461 15.54877,27.420641 l 0.005,0.0105 c 0.35325,0.64546 0.55651,1.39338 0.34175,2.11633 -0.41111,1.38261 -1.79575,1.80526 -3.11687,1.80277 -1.83181,0 -3.84531,0.30022 -5.64497,-0.0207 -0.85439,-0.1446 -1.71805,-0.91382 -2.12905,-1.6468 z"
       style="fill:#ff0000;stroke:#e30016;stroke-width:0.0775988;stroke-linecap:square;stroke-linejoin:bevel;stroke-dasharray:none"
       id="K" />
    <path
       d="M 331.08911,41.660117 V -5.5751536 c 6e-5,-0.23716 -0.094,-0.46481 -0.26165,-0.63267 -0.16758,-0.16775 -0.39621,-0.26213 -0.63337,-0.26235 h -7.45839 c -0.23726,-6e-5 -0.4648,0.094 -0.63267,0.26154 -0.16787,0.16769 -0.26224,0.39632 -0.26235,0.63348 V 41.659097 c -0.004,3.85969 -3.09222,7.003309 -6.95139,7.061689 -3.85915,0.0585 -7.05105,-2.981549 -7.17026,-6.839229 -0.0151,-0.4828 -0.41152,-0.86656 -0.89451,-0.86684 h -7.45837 c -0.2399,0 -0.46979,0.0964 -0.63807,0.26729 -0.16815,0.17095 -0.26074,0.40246 -0.25684,0.64221 0.13932,8.949549 7.48948,16.112218 16.43984,16.045378 8.95043,-0.0669 16.17245,-7.358839 16.17803,-16.309478 z"
       style="fill:#ff0000;stroke:#e30016;stroke-width:0.0757771;stroke-linecap:butt;stroke-linejoin:bevel;stroke-dasharray:none"
       id="J" />
    <path
       d="M 290.65744,54.993136 V -7.6571036 c 1.1e-4,-0.23719 -0.0941,-0.4648 -0.26165,-0.63266 -0.16754,-0.16777 -0.39617,-0.26214 -0.63335,-0.26235 h -7.45837 c -0.2373,-1.1e-4 -0.46481,0.094 -0.63266,0.26154 -0.16788,0.16764 -0.26225,0.39628 -0.26236,0.63347 V 54.993136 c -2.1e-4,0.23726 0.0939,0.46481 0.26154,0.63267 0.16765,0.16784 0.39618,0.26224 0.63348,0.26231 h 7.45837 c 0.23718,2.1e-4 0.46479,-0.094 0.63259,-0.26154 0.16783,-0.16765 0.2622,-0.39618 0.26241,-0.63344 z"
       style="fill:#ff0000;stroke:#e30016;stroke-width:0.0757771;stroke-linecap:butt;stroke-linejoin:bevel;stroke-dasharray:none"
       id="I" />
    <path
       d="M 268.24173,54.104616 V -8.5456336 c 1.1e-4,-0.23719 -0.0941,-0.4648 -0.26154,-0.63266 -0.16765,-0.16777 -0.39628,-0.26214 -0.63344,-0.26235 h -7.45839 c -0.23726,-1.1e-4 -0.46481,0.094 -0.63267,0.26154 -0.16786,0.16765 -0.26224,0.39628 -0.26235,0.63347 V 16.564206 c -2.8e-4,0.42225 -0.16825,0.82706 -0.46696,1.1255 -0.29884,0.29844 -0.7019,0.46592 -1.12414,0.46561 h -10.93895 c -0.42224,-2.8e-4 -0.8271,-0.16825 -1.1255,-0.46698 -0.29844,-0.29886 -0.46593,-0.70188 -0.46561,-1.12413 V -8.5456336 c 1.1e-4,-0.23719 -0.0941,-0.4648 -0.26154,-0.63266 -0.16769,-0.16777 -0.39628,-0.26214 -0.63346,-0.26235 h -7.45841 c -0.23726,-1.1e-4 -0.46481,0.094 -0.63266,0.26154 -0.16784,0.16765 -0.26221,0.39628 -0.26232,0.63347 V 54.104616 c -2.1e-4,0.23726 0.0941,0.464797 0.26154,0.632667 0.16765,0.167833 0.39618,0.262233 0.63344,0.262303 h 7.45841 c 0.23718,2.1e-4 0.46479,-0.094 0.63267,-0.261533 0.16775,-0.16766 0.26212,-0.396177 0.26233,-0.633437 V 28.994737 c 2.8e-4,-0.42224 0.16826,-0.82709 0.46698,-1.12553 0.29883,-0.29834 0.70189,-0.46589 1.12413,-0.46561 h 10.93895 c 0.42224,3.2e-4 0.82709,0.16825 1.12553,0.46701 0.29835,0.29883 0.4659,0.70189 0.46557,1.12413 v 25.109879 c -1.7e-4,0.23726 0.0941,0.464797 0.26158,0.632667 0.16766,0.167833 0.39618,0.262233 0.63344,0.262303 h 7.45839 c 0.23716,2.1e-4 0.4648,-0.094 0.63267,-0.261533 0.16777,-0.16766 0.26214,-0.396177 0.26231,-0.633437 z"
       style="fill:#ff0000;stroke:#e30016;stroke-width:0.0757771;stroke-linecap:butt;stroke-linejoin:bevel;stroke-dasharray:none"
       id="H" />
    <path
       d="m 215.02489,37.334177 v -4.22643 c 3.4e-4,-0.55349 -0.2192,-1.08442 -0.61029,-1.47615 -0.39124,-0.39162 -0.92456,-0.61179 -1.47808,-0.61218 h -2.98334 c -0.23746,-10e-5 -0.46522,-0.0947 -0.63305,-0.26273 -0.16787,-0.16808 -0.26206,-0.3947 -0.26195,-0.63228 v -7.458361 c 2.1e-4,-0.2375 0.0947,-0.46522 0.26273,-0.63309 0.16808,-0.16776 0.39481,-0.26192 0.63227,-0.26181 h 13.42507 c 0.23759,1.7e-4 0.4653,0.0946 0.63306,0.26262 0.16786,0.16804 0.26216,0.39478 0.26196,0.63228 v 14.668131 c -0.003,4.32813 -1.72467,8.47798 -4.78708,11.536499 -3.06242,3.05855 -7.19377,4.77526 -11.52191,4.77249 -4.32654,0 -8.4731,-1.71724 -11.53204,-4.77695 -3.05911,-3.059919 -4.77743,-7.206189 -4.77694,-11.533059 V 5.5128562 c 0.005,-8.9617698 7.21633,-16.2424002 16.17791,-16.3094502 8.9616,-0.0668 16.30043,7.0846404 16.43996,16.0453502 0.004,0.23996 -0.0886,0.47126 -0.25698,0.64221 -0.16826,0.17102 -0.39797,0.26729 -0.63794,0.26729 h -7.45836 c -0.4836,-2.8e-4 -0.87961,-0.38345 -0.89451,-0.86677 -0.11907,-3.85298 -3.31599,-6.8976798 -7.17028,-6.8392998 -3.85438,0.0584 -6.94903,3.2068798 -6.95141,7.0616798 V 37.334177 c -0.001,1.87145 0.74106,3.66663 2.06359,4.99073 1.32242,1.32413 3.12566,2.06867 4.997,2.06987 1.87145,0 3.66663,-0.74107 4.99076,-2.06349 1.3241,-1.32252 2.06866,-3.12566 2.06985,-4.99711 z"
       style="fill:#ff0000;stroke:#e30016;stroke-width:0.0757771;stroke-linecap:butt;stroke-linejoin:bevel;stroke-dasharray:none"
       id="G" />
    <path
       d="M 149.18695,-6.2955236 V 56.354716 c -1e-4,0.23726 0.094,0.4648 0.26165,0.63267 0.16754,0.16783 0.39618,0.262229 0.63333,0.262299 h 7.4584 c 0.23725,2.2e-4 0.4648,-0.094 0.63267,-0.261529 0.16787,-0.16766 0.26223,-0.39618 0.26234,-0.63344 V 31.244837 c 2.8e-4,-0.42224 0.16826,-0.82709 0.46709,-1.12553 0.29872,-0.29834 0.70177,-0.46589 1.12402,-0.46561 h 16.90566 c 0.23726,2.1e-4 0.46481,-0.094 0.63267,-0.26154 0.16786,-0.16765 0.26224,-0.39618 0.26234,-0.63347 v -7.458261 c 1.8e-4,-0.23719 -0.0939,-0.4648 -0.26157,-0.63266 -0.16765,-0.16777 -0.39618,-0.26214 -0.63344,-0.26235 h -16.90566 c -0.42225,-2.8e-4 -0.82709,-0.16825 -1.12554,-0.46697 -0.29829,-0.29887 -0.46578,-0.70189 -0.46557,-1.12414 V 3.6489262 c 2.8e-4,-0.42225 0.16826,-0.82709 0.46709,-1.1255 0.29872,-0.29834 0.70177,-0.46592 1.12402,-0.46561 h 20.88346 c 0.23727,2.1e-4 0.46481,-0.094 0.63267,-0.26153 0.16784,-0.16766 0.26225,-0.39618 0.26231,-0.63348 v -7.4583298 c 2.1e-4,-0.2372 -0.0939,-0.46481 -0.26152,-0.63267 -0.16767,-0.16777 -0.39619,-0.26214 -0.63346,-0.26235 h -30.82798 c -0.23715,-10e-5 -0.4647,0.094 -0.63256,0.26154 -0.16786,0.16765 -0.26223,0.39628 -0.26242,0.63348 z"
       style="fill:#ff0000;stroke:#e30016;stroke-width:0.0757771;stroke-linecap:butt;stroke-linejoin:bevel;stroke-dasharray:none"
       id="F" />
    <path
       d="M 106.33485,-6.2511436 V 56.399106 c -2.1e-4,0.23726 0.0939,0.4648 0.26153,0.63267 0.16766,0.16783 0.39618,0.262227 0.63348,0.262297 h 30.82794 c 0.23719,2.2e-4 0.4647,-0.094 0.63257,-0.261527 0.16787,-0.16766 0.26224,-0.39618 0.26245,-0.63344 v -7.45841 c 1e-4,-0.23715 -0.094,-0.4648 -0.26164,-0.63267 -0.16766,-0.16776 -0.39619,-0.26213 -0.63338,-0.26234 h -20.88346 c -0.42232,-2.8e-4 -0.82716,-0.16825 -1.1255,-0.46698 -0.29844,-0.29882 -0.46589,-0.70188 -0.46561,-1.12413 V 31.289227 c 2.1e-4,-0.42224 0.16825,-0.82709 0.46701,-1.12553 0.29872,-0.29834 0.70178,-0.46589 1.1241,-0.46561 h 15.91123 c 0.23715,2.1e-4 0.46469,-0.094 0.63256,-0.26154 0.16787,-0.16765 0.26224,-0.39618 0.26245,-0.63347 v -7.458261 c 7e-5,-0.23719 -0.094,-0.4648 -0.26164,-0.63267 -0.1677,-0.16776 -0.39622,-0.26213 -0.63337,-0.26234 h -15.91123 c -0.42232,-2.8e-4 -0.82716,-0.16825 -1.1255,-0.46698 -0.29844,-0.29886 -0.46589,-0.70188 -0.46561,-1.12413 V 3.6933162 c 2.1e-4,-0.42225 0.16825,-0.82709 0.46701,-1.1255 0.29872,-0.29834 0.70178,-0.46592 1.1241,-0.46561 h 20.88346 c 0.23719,2.1e-4 0.4647,-0.094 0.63257,-0.26154 0.16787,-0.16765 0.26224,-0.39618 0.26245,-0.63347 v -7.4583398 c 1e-4,-0.23719 -0.094,-0.4648 -0.26164,-0.63266 -0.16766,-0.16777 -0.39619,-0.26214 -0.63338,-0.26235 h -30.82794 c -0.2373,-1.1e-4 -0.4648,0.094 -0.63267,0.26154 -0.16787,0.16765 -0.26224,0.39628 -0.26234,0.63347 z"
       style="fill:#ff0000;stroke:#e30016;stroke-width:0.0757771;stroke-linecap:butt;stroke-linejoin:bevel;stroke-dasharray:none"
       id="E" />
    <path
       d="m 293.7972,91.543789 15.80266,14.534151 c 5.40365,4.97346 6.82845,12.93123 3.47474,19.46464 -3.35372,6.53345 -10.64417,10.02738 -17.83508,8.53581 -7.19079,-1.49153 -12.50106,-7.58737 -12.97954,-14.91568 -0.0162,-0.2471 0.0705,-0.48974 0.23984,-0.67043 0.16922,-0.18066 0.40559,-0.2832 0.65321,-0.2832 h 7.45779 c 0.44996,2.1e-4 0.8298,0.33353 0.88747,0.77981 0.40183,3.10663 2.79977,5.58221 5.89107,6.08815 3.0914,0.50592 6.15059,-1.08128 7.52183,-3.89776 1.37126,-2.81645 0.72808,-6.2023 -1.57688,-8.32368 L 287.53166,98.321629 c -5.40355,-4.97343 -6.82846,-12.931299 -3.47474,-19.464739 3.35382,-6.53341 10.64414,-10.02724 17.83508,-8.53581 7.19079,1.49157 12.50106,7.58737 12.97954,14.91571 0.0162,0.2471 -0.0705,0.48974 -0.23974,0.6704 -0.16926,0.18069 -0.40561,0.28319 -0.65321,0.28319 h -7.45781 c -0.45004,-1.7e-4 -0.82991,-0.33349 -0.88758,-0.77977 -0.40179,-3.10662 -2.79964,-5.58213 -5.89104,-6.08805 -3.09132,-0.50595 -6.15051,1.08118 -7.52173,3.89763 -1.37125,2.81648 -0.72811,6.202329 1.57677,8.323599 z"
       style="fill:#ff0000;stroke:#e30016;stroke-width:0.0757712;stroke-linecap:butt;stroke-linejoin:bevel;stroke-dasharray:none"
       id="S" />
    <path
       id="Q"
       style="fill:#ff0000;stroke:#e30016;stroke-width:0.0757767;stroke-linecap:butt;stroke-linejoin:bevel;stroke-dasharray:none"
       d="m 210.93402,63.751619 c -4.32264,-0.003 -8.46916,1.71159 -11.52767,4.7662 -3.05854,3.05464 -4.7786,7.2201 -4.78126,11.54274 v 31.822351 c 0,5.64137 2.91957,10.88517 7.7132,13.85937 4.79361,2.97417 10.79031,3.25592 15.84437,0.74961 0.42979,-0.21309 0.93263,-0.22083 1.36902,-0.0212 0.43624,0.19958 0.75926,0.58512 0.87909,1.04971 0.1017,0.39509 0.45819,0.67139 0.86609,0.67149 h 5.05124 c 0.23716,1.7e-4 0.46456,-0.0941 0.63243,-0.26174 0.16776,-0.16766 0.26224,-0.39655 0.26243,-0.63381 v -6.21195 c 1.1e-4,-0.34387 -0.19717,-0.6574 -0.50704,-0.80647 -0.76514,-0.36825 -1.10707,-1.27072 -0.77632,-2.05283 0.84716,-2.00689 1.28325,-4.1638 1.28336,-6.34214 V 80.060559 c 0.004,-4.32264 -1.71155,-8.46913 -4.7662,-11.52767 -3.05464,-3.0585 -7.22006,-4.77849 -11.54274,-4.78127 z m 0,9.24804 c 1.87137,0.001 3.67466,0.74587 4.9971,2.06996 1.32248,1.32413 2.0638,3.1196 2.0638,4.99094 v 29.335791 c -1.1e-4,0.49781 -0.23361,0.96757 -0.63038,1.26829 l -8.89927,6.7464 c -0.58204,0.44083 -1.39043,0.42939 -1.95896,-0.0288 -1.6638,-1.34009 -2.63283,-3.3629 -2.63251,-5.49935 V 80.060559 c 0.001,-1.87134 0.74587,-3.6747 2.06997,-4.99711 1.32408,-1.32251 3.11881,-2.06485 4.99025,-2.06379 z" />
    <path
       id="R"
       style="fill:#ff0000;stroke:#e30016;stroke-width:0.0757767;stroke-linecap:butt;stroke-linejoin:bevel;stroke-dasharray:none"
       d="m 240.33474,67.546042 c -0.23718,-1e-4 -0.46457,0.0942 -0.63243,0.26174 -0.16776,0.16766 -0.26222,0.39593 -0.26243,0.63312 v 62.649818 c -1.7e-4,0.23726 0.0942,0.46525 0.26174,0.63312 0.16769,0.16786 0.39594,0.26232 0.63312,0.26242 h 7.45831 c 0.23718,1.8e-4 0.46528,-0.0942 0.63312,-0.26174 0.16775,-0.16765 0.26164,-0.39654 0.26174,-0.6338 v -17.27026 c 0,-1.61955 1.16309,-3.00343 2.75858,-3.28138 1.59549,-0.27802 3.15846,0.62772 3.70689,2.1515 l 6.74229,18.70368 c 0.12768,0.35482 0.46432,0.5919 0.84141,0.592 h 7.92835 c 0.29136,7e-5 0.56493,-0.14258 0.73247,-0.38096 0.16759,-0.23845 0.20844,-0.54392 0.10963,-0.81812 l -9.71327,-26.94722 c -0.26592,-0.73868 0.0447,-1.56045 0.73384,-1.93635 7.33804,-4.002661 11.02481,-12.484561 8.96093,-20.584528 -2.06396,-8.09994 -9.37053,-13.76985 -17.72933,-13.77304 z m 9.94487,9.24803 h 3.48009 c 3.23184,7e-4 6.22195,1.72576 7.83722,4.52501 1.61538,2.79928 1.61657,6.25078 0,9.049327 -1.61646,2.79858 -4.60538,4.52571 -7.83722,4.525 h -3.48009 c -0.42175,-3.1e-4 -0.82844,-0.16828 -1.12645,-0.46661 -0.29802,-0.29844 -0.46553,-0.70265 -0.46525,-1.1244 V 78.385092 c 3.2e-4,-0.42172 0.16828,-0.82775 0.46662,-1.12577 0.2984,-0.29806 0.70333,-0.46553 1.12508,-0.46525 z" />
    <path
       id="P"
       style="fill:#ff0000;stroke:#e30016;stroke-width:0.0757767;stroke-linecap:butt;stroke-linejoin:bevel;stroke-dasharray:none"
       d="m 153.46651,64.567005 c -0.23715,-1.1e-4 -0.46457,0.0942 -0.63243,0.26174 -0.16787,0.16766 -0.26225,0.39593 -0.26243,0.63312 v 62.649825 c -1.1e-4,0.23726 0.0941,0.46525 0.26175,0.63312 0.16755,0.16786 0.39596,0.26232 0.63311,0.26242 h 7.45831 c 0.23727,1.8e-4 0.46457,-0.0941 0.63244,-0.26174 0.16787,-0.16766 0.26232,-0.39654 0.26242,-0.6338 v -25.35826 c 2.8e-4,-0.42225 0.16848,-0.82668 0.4673,-1.12509 0.29874,-0.29833 0.70148,-0.46624 1.12372,-0.46593 h 3.48077 c 6.53479,0.001 12.57785,-3.490191 15.84643,-9.148681 3.26853,-5.658584 3.26614,-12.638054 0,-18.298044 -3.26619,-5.65996 -9.31164,-9.14728 -15.84643,-9.14868 z m 9.94419,9.24803 h 3.48077 c 3.23195,7e-4 6.22185,1.72576 7.83723,4.52501 1.61527,2.79928 1.61646,6.25078 0,9.04932 -1.61657,2.798594 -4.60528,4.525714 -7.83723,4.525014 h -3.48077 c -0.42165,-3.1e-4 -0.82771,-0.16828 -1.12577,-0.46661 -0.29792,-0.29845 -0.46546,-0.70265 -0.46525,-1.1244 V 75.406055 c 2.8e-4,-0.42172 0.16818,-0.82775 0.46662,-1.12577 0.29835,-0.29806 0.70275,-0.46553 1.1244,-0.46525 z" />
    <path
       d="m 66.253584,129.55432 h 7.45835 c 0.23719,1.7e-4 0.4647,-0.094 0.63257,-0.26157 0.16786,-0.16766 0.26224,-0.39619 0.26244,-0.63345 v -17.90008 c 7e-4,-1.73344 1.23948,-3.21695 2.94566,-3.52335 1.70607,-0.30638 3.38569,0.64985 3.98952,2.27471 l 7.24218,19.46088 c 0.13034,0.35033 0.46502,0.58275 0.83881,0.58286 h 7.4584 c 0.23718,1.7e-4 0.46468,-0.094 0.63256,-0.26157 0.16786,-0.16766 0.26223,-0.39619 0.26244,-0.63345 V 66.009101 c 1.1e-4,-0.23719 -0.094,-0.4648 -0.26165,-0.63266 -0.16758,-0.16777 -0.39617,-0.26214 -0.63335,-0.26235 h -7.4584 c -0.23726,-1e-4 -0.46481,0.094 -0.63267,0.26154 -0.16784,0.16766 -0.26223,0.39628 -0.26231,0.63347 v 17.90008 c -7e-4,1.73344 -1.23959,3.21695 -2.94565,3.52335 -1.70618,0.30637 -3.38583,-0.64989 -3.98966,-2.27471 l -7.24207,-19.46087 c -0.13021,-0.35026 -0.46509,-0.58275 -0.83882,-0.58286 h -7.45835 c -0.23729,-1e-4 -0.46481,0.094 -0.63267,0.26154 -0.16786,0.16766 -0.26224,0.39628 -0.26234,0.63347 V 128.6593 c -2.1e-4,0.23726 0.0939,0.4648 0.26153,0.63267 0.16766,0.16787 0.39619,0.26224 0.63348,0.26235 z"
       style="fill:#ff0000;stroke:#e30016;stroke-width:0.075777;stroke-linecap:butt;stroke-linejoin:bevel;stroke-dasharray:none"
       id="N" />
    <path
       d="m 21.698478,129.59104 h 7.457076 c 0.23716,1.7e-4 0.46481,-0.094 0.63267,-0.26158 0.16777,-0.16765 0.26214,-0.39618 0.26231,-0.63344 v -27.34737 c 3.2e-4,-0.76044 0.53711,-1.414191 1.28327,-1.561081 0.74612,-0.14678 1.49147,0.253401 1.77985,0.956971 l 2.70947,6.60214 c 0.21422,0.52237 0.72347,0.86347 1.28801,0.86368 0.56457,1.8e-4 1.0735,-0.34149 1.28803,-0.86368 l 2.70945,-6.60204 c 0.28901,-0.70339 1.03383,-1.104451 1.77989,-0.956961 0.74601,0.14748 1.28355,0.800531 1.28323,1.560971 v 27.34737 c -2.1e-4,0.23726 0.094,0.4648 0.26154,0.63267 0.16765,0.16787 0.39617,0.26224 0.63346,0.26235 h 7.45836 c 0.23719,1.7e-4 0.4648,-0.094 0.63267,-0.26158 0.16777,-0.16765 0.26217,-0.39618 0.26235,-0.63344 V 66.045814 c 1e-4,-0.23719 -0.094,-0.4648 -0.26154,-0.63266 -0.16766,-0.16777 -0.39629,-0.26214 -0.63348,-0.26235 h -7.45836 c -0.36765,-10e-5 -0.69809,0.22516 -0.83284,0.56724 l -5.64223,14.33558 c -0.23965,0.6086 -0.82637,1.00857 -1.48053,1.00836 -0.65415,-1.8e-4 -1.24116,-0.39965 -1.48053,-1.00836 l -5.6422,-14.33558 c -0.13453,-0.34208 -0.46522,-0.56713 -0.83285,-0.56724 h -7.458376 c -0.23726,-10e-5 -0.4648,0.094 -0.63267,0.26154 -0.16786,0.16766 -0.26224,0.39628 -0.26235,0.63347 v 62.650206 c 0,0.23758 0.0945,0.46551 0.26267,0.63337 0.16804,0.16787 0.39618,0.26193 0.63365,0.26165 z"
       style="fill:#ff0000;stroke:#e30016;stroke-width:0.075777;stroke-linecap:butt;stroke-linejoin:bevel;stroke-dasharray:none"
       id="M" />
    <path
       d="M -26.011012,129.6949 H 4.8169082 c 0.23726,1.7e-4 0.4648,-0.094 0.63267,-0.26157 0.16787,-0.16766 0.26224,-0.39619 0.26234,-0.63345 v -7.45839 c 1.8e-4,-0.23715 -0.094,-0.4648 -0.26153,-0.63267 -0.16769,-0.16776 -0.39622,-0.26213 -0.63348,-0.26231 H -16.066542 c -0.42224,-3.1e-4 -0.82709,-0.16828 -1.1255,-0.46701 -0.29833,-0.29883 -0.46592,-0.70188 -0.4656,-1.12413 V 66.149681 c 2.1e-4,-0.23719 -0.094,-0.4648 -0.26154,-0.63266 -0.16766,-0.16777 -0.39618,-0.26214 -0.63347,-0.26235 h -7.45836 c -0.23719,-1e-4 -0.4648,0.094 -0.6326,0.26154 -0.16783,0.16766 -0.2622,0.39628 -0.26241,0.63347 v 62.650199 c -1.1e-4,0.23726 0.094,0.4648 0.26154,0.63267 0.16765,0.16787 0.39628,0.26224 0.63347,0.26235 z"
       style="fill:#ff0000;stroke:#e30016;stroke-width:0.075777;stroke-linecap:butt;stroke-linejoin:bevel;stroke-dasharray:none"
       id="L" />
    <path
       d="m 142.08865,140.24065 c 0.0993,-0.27419 0.0587,-0.57988 -0.10872,-0.81872 -0.16748,-0.23877 -0.44105,-0.38099 -0.73273,-0.38109 h -7.93254 c -0.37656,-1.1e-4 -0.71311,0.23621 -0.84148,0.59022 l -3.50774,9.68468 c -0.47814,1.31904 -1.72916,2.19735 -3.13223,2.19686 -1.40307,-3.4e-4 -2.65487,-0.8775 -3.1323,-2.19686 l -3.50764,-9.68468 c -0.12822,-0.35412 -0.4649,-0.59012 -0.84161,-0.59022 h -7.93244 c -0.29167,0 -0.56524,0.14232 -0.7328,0.38109 -0.16748,0.23876 -0.20803,0.54444 -0.10873,0.81872 l 11.23523,31.02027 -11.23523,31.02032 c -0.0994,0.27427 -0.0586,0.57995 0.10873,0.81871 0.16745,0.23888 0.44113,0.3811 0.7328,0.3811 h 7.93244 c 0.37671,1.1e-4 0.7132,-0.23617 0.8415,-0.59023 l 3.50775,-9.68464 c 0.47821,-1.31904 1.72923,-2.19746 3.1323,-2.19694 1.40307,3.6e-4 2.6549,0.87758 3.13223,2.19694 l 3.50774,9.68464 c 0.12809,0.35412 0.46492,0.59013 0.84148,0.59023 h 7.93254 c 0.29168,1.1e-4 0.56518,-0.14232 0.73273,-0.3811 0.16755,-0.23876 0.20803,-0.54444 0.10872,-0.81871 l -11.2352,-31.02032 z"
       style="fill:#ff0000;stroke:#e30016;stroke-width:0.0757772;stroke-linecap:butt;stroke-linejoin:bevel;stroke-dasharray:none"
       id="X" />
    <path
       d="m 96.099414,201.87051 3.48055,-62.65015 c 0.0137,-0.24554 -0.0745,-0.48598 -0.24343,-0.66469 -0.16896,-0.17871 -0.40425,-0.27995 -0.65018,-0.27995 h -7.4698 c -0.47477,-2.8e-4 -0.86708,0.37144 -0.89372,0.84539 l -1.23363,22.20626 c -0.061,1.08812 -0.86367,1.98959 -1.93789,2.17355 -1.07431,0.18398 -2.1324,-0.39677 -2.55197,-1.40263 l -1.74414,-4.17661 c -0.13892,-0.33313 -0.46502,-0.55001 -0.8259,-0.55011 -0.36089,-1.1e-4 -0.68666,0.21708 -0.8259,0.55011 l -1.74406,4.17661 c -0.42047,1.00548 -1.47794,1.58752 -2.55198,1.40263 -1.07411,-0.18483 -1.87791,-1.08533 -1.93787,-2.17355 l -1.23373,-22.20626 c -0.026,-0.47406 -0.41883,-0.84508 -0.8936,-0.84539 h -7.46992 c -0.24592,0 -0.48111,0.1013 -0.65017,0.27995 -0.16906,0.1786 -0.25708,0.41915 -0.24343,0.66469 l 3.48056,62.65015 c 0.026,0.47408 0.41887,0.8451 0.89361,0.84542 h 7.46995 c 0.40225,1.7e-4 0.75528,-0.26891 0.86266,-0.65656 l 2.83101,-10.24213 c 0.2506,-0.90547 1.0733,-1.53224 2.01287,-1.53196 0.93957,3.4e-4 1.76287,0.62632 2.01286,1.53196 l 2.83109,10.24213 c 0.107,0.38775 0.46035,0.65646 0.8627,0.65656 h 7.46981 c 0.47476,2.8e-4 0.86709,-0.37134 0.89365,-0.84542 z"
       style="fill:#ff0000;stroke:#e30016;stroke-width:0.0757772;stroke-linecap:butt;stroke-linejoin:bevel;stroke-dasharray:none"
       id="W" />
    <path
       d="m 52.291004,138.34281 h -7.58695 c -0.43079,-1.8e-4 -0.80074,0.30749 -0.87989,0.73093 l -3.42779,18.37884 c -0.31701,1.69562 -1.79438,2.92436 -3.51935,2.92369 -1.72495,-7e-4 -3.20381,-1.22776 -3.51937,-2.92369 l -3.42776,-18.37884 c -0.0789,-0.42355 -0.44908,-0.73072 -0.87989,-0.73093 h -7.586976 c -0.26599,0 -0.51841,0.11853 -0.68845,0.32309 -0.16993,0.20457 -0.24007,0.47446 -0.19133,0.73599 l 11.684696,62.6502 c 0.0789,0.42354 0.44908,0.73072 0.87989,0.73093 h 7.45841 c 0.43077,1.7e-4 0.8006,-0.3075 0.87978,-0.73093 l 11.68487,-62.6502 c 0.0488,-0.26143 -0.0215,-0.53131 -0.1914,-0.73599 -0.16997,-0.20466 -0.42246,-0.32309 -0.68849,-0.32309 z"
       style="fill:#ff0000;stroke:#e30016;stroke-width:0.0757772;stroke-linecap:butt;stroke-linejoin:bevel;stroke-dasharray:none"
       id="V" />
    <path
       d="m 5.5028082,139.6471 h -7.45851 c -0.23716,-7e-5 -0.4647,0.094 -0.63257,0.26158 -0.16786,0.16765 -0.26223,0.39629 -0.26242,0.63345 v 47.23678 c -0.003,3.90196 -3.15872,7.06317 -7.06069,7.06068 -1.8730902,-2.1e-4 -3.6683002,-0.74337 -4.9926202,-2.06801 -1.32433,-1.32461 -2.06828,-3.11954 -2.06807,-4.99267 v -47.23678 c 2e-4,-0.23716 -0.0939,-0.46482 -0.26155,-0.63268 -0.16766,-0.16777 -0.39619,-0.26214 -0.63348,-0.26235 h -7.45847 c -0.23718,-7e-5 -0.46473,0.094 -0.63257,0.26158 -0.16787,0.16765 -0.26223,0.39629 -0.26245,0.63345 v 47.23678 c -0.001,5.82455 3.11098,11.21076 8.15461,14.12415 5.04363,2.91339 11.2643802,2.91128 16.3092002,0 5.04491,-2.91118 8.15341,-8.2996 8.15461,-14.12415 v -47.23678 c 1.7e-4,-0.23716 -0.0939,-0.46482 -0.26155,-0.63268 -0.16769,-0.16777 -0.39622,-0.26214 -0.63347,-0.26235 z"
       style="fill:#ff0000;stroke:#e30016;stroke-width:0.0757781;stroke-linecap:butt;stroke-linejoin:bevel;stroke-dasharray:none"
       id="U" />
    <path
       d="m -51.985182,147.51644 v 52.70572 c -1.9e-4,0.23758 -0.0947,0.4653 -0.26274,0.63306 -0.16805,0.16787 -0.39478,0.26213 -0.63228,0.26196 h -7.45837 c -0.23757,-1e-4 -0.46529,-0.0947 -0.63317,-0.26273 -0.16786,-0.16808 -0.26203,-0.39471 -0.26184,-0.63229 v -52.70572 c 2.1e-4,-0.42175 -0.16707,-0.82628 -0.46509,-1.12462 -0.29795,-0.29844 -0.70437,-0.46619 -1.12602,-0.46651 h -9.19869 c -0.23758,-1.1e-4 -0.46529,-0.0947 -0.63316,-0.26274 -0.16786,-0.16803 -0.26203,-0.3947 -0.26186,-0.63227 v -7.45832 c 1.1e-4,-0.23748 0.0945,-0.46519 0.26267,-0.63306 0.16804,-0.16787 0.39477,-0.26206 0.63235,-0.26196 h 30.82798 c 0.23747,2.1e-4 0.46523,0.0947 0.63309,0.26273 0.16787,0.16808 0.26203,0.39481 0.26193,0.63229 v 7.45832 c -2.1e-4,0.23757 -0.0947,0.46532 -0.26274,0.63308 -0.16807,0.16788 -0.39481,0.26214 -0.63228,0.26193 h -9.19865 c -0.42175,-2.8e-4 -0.82628,0.16698 -1.12472,0.46501 -0.29844,0.29806 -0.46622,0.70437 -0.46641,1.12612 z"
       style="fill:#ff0000;stroke:#e30016;stroke-width:0.0757772;stroke-linecap:butt;stroke-linejoin:bevel;stroke-dasharray:none"
       id="T" />
    <path
       d="m 205.02228,194.2353 h 18.62251 c 0.23758,1.8e-4 0.46529,0.0947 0.63315,0.26274 0.16777,0.16803 0.26204,0.39477 0.26186,0.63224 v 7.45837 c -1.1e-4,0.23757 -0.0945,0.46529 -0.26267,0.63306 -0.16803,0.16786 -0.39476,0.26212 -0.63234,0.26195 h -30.82784 c -0.23747,-1.1e-4 -0.46522,-0.0947 -0.63308,-0.26274 -0.16788,-0.16807 -0.26203,-0.3947 -0.26193,-0.63227 v -7.45837 c 0,-0.13335 0.0298,-0.26501 0.0874,-0.38545 l 21.08228,-44.17662 c 0.23526,-0.49276 0.20094,-1.07232 -0.0902,-1.53414 -0.29128,-0.46193 -0.79976,-0.74217 -1.34581,-0.74226 h -18.83858 c -0.23746,-1e-4 -0.46521,-0.0947 -0.63308,-0.26273 -0.16787,-0.16809 -0.26203,-0.39472 -0.26192,-0.6323 v -7.45833 c 2.1e-4,-0.23748 0.0947,-0.46522 0.26273,-0.63305 0.16808,-0.16787 0.39481,-0.26206 0.63227,-0.26197 h 30.82784 c 0.23758,2.2e-4 0.4653,0.0947 0.63316,0.26274 0.16777,0.16807 0.26204,0.3948 0.26185,0.63228 v 7.45833 c 0,0.13233 -0.0292,0.26274 -0.0858,0.3823 l -20.87057,44.18558 c -0.23279,0.49267 -0.19687,1.07075 0.0947,1.53116 0.29157,0.46034 0.79914,0.73938 1.3441,0.73948 z"
       style="fill:#ff0000;stroke:#e30016;stroke-width:0.0757768;stroke-linecap:butt;stroke-linejoin:bevel;stroke-dasharray:none"
       id="Z" />
    <path
       d="m 171.88528,172.48346 v 30.37996 c -2.2e-4,0.23758 -0.0947,0.46534 -0.26274,0.63309 -0.16807,0.16784 -0.39481,0.26214 -0.63228,0.26193 h -7.45833 c -0.23757,-1.1e-4 -0.46533,-0.0947 -0.63308,-0.26274 -0.16788,-0.16807 -0.26214,-0.3947 -0.26193,-0.63228 v -30.37996 c 0,-0.48556 -0.0868,-0.96759 -0.25638,-1.42285 l -11.3721,-30.53501 c -0.10223,-0.27486 -0.0637,-0.58215 0.10369,-0.82302 0.16737,-0.24073 0.44172,-0.38436 0.7351,-0.38436 h 7.95874 c 0.37401,1.1e-4 0.70834,0.23215 0.83871,0.58268 l 3.49449,9.38291 c 0.48498,1.30355 1.73106,2.16832 3.12188,2.1687 1.39082,3.5e-4 2.63608,-0.86547 3.12196,-2.1687 l 3.49447,-9.38291 c 0.13061,-0.35047 0.4647,-0.58274 0.83875,-0.58268 h 7.95884 c 0.29325,1.1e-4 0.56773,0.14354 0.73499,0.38436 0.16728,0.24098 0.20604,0.54826 0.10369,0.82302 l -11.37216,30.53501 c -0.16956,0.45515 -0.25638,0.93729 -0.25638,1.42285 z"
       style="fill:#ff0000;stroke:#e30016;stroke-width:0.0757768;stroke-linecap:butt;stroke-linejoin:bevel;stroke-dasharray:none"
       id="Y" />
    <path
       id="B"
       style="fill:#ff0000;stroke:#e30016;stroke-width:0.0757767;stroke-linecap:butt;stroke-linejoin:bevel;stroke-dasharray:none"
       d="m -24.175262,-9.3846736 c -0.2372,-1.1e-4 -0.46468,0.0942 -0.63243,0.26174 -0.16788,0.16765 -0.26222,0.39593 -0.26243,0.63312 V 54.160016 c -1.1e-4,0.237257 0.0942,0.465247 0.26174,0.633117 0.16769,0.167873 0.39592,0.262363 0.63312,0.262423 h 13.42496 c 7.3643802,0.004 14.0159502,-4.42233 16.8701002,-11.211109 2.85405,-6.78879 1.35077,-14.63451 -3.80281,-19.895231 -0.60643,-0.61945 -0.60713,-1.60883 0,-2.22756 5.15657,-5.25775 6.65307,-13.1047598 3.80281,-19.8952198 -2.8504,-6.7903798 -9.50572,-11.2090398 -16.8701002,-11.2111098 z m 10.64034,10.7396898 h 2.65991 c 2.0349602,0.001 3.9988402,0.81138 5.4376802,2.25223 1.43867,1.44035 2.24469,3.39374 2.24469,5.42946 -10e-4,2.0355198 -0.8108,3.9987298 -2.25154,5.4376798 -1.44046,1.43846 -3.39363,2.24537 -5.4294602,2.24537 h -2.61058 c -0.57814,1.1e-4 -0.81571,-0.21945 -0.84621,-0.78865 V 1.9655262 c 0,-0.44908 0.21645,-0.62111 0.79551,-0.61051 z m 0,27.5961008 h 2.65991 c 2.0349602,0.001 3.9988402,0.81138 5.4376802,2.25222 1.43867,1.44036 2.24469,3.39305 2.24469,5.42878 -10e-4,2.03552 -0.8108,3.99942 -2.25154,5.43836 -1.44046,1.43846 -3.39363,2.24469 -5.4294602,2.24469 h -2.61058 c -0.57814,1.1e-4 -0.81571,-0.21876 -0.84621,-0.78797 v -13.96558 c 0,-0.44909 0.21645,-0.62111 0.79551,-0.6105 z" />
    <path
       id="O"
       style="fill:#ff0000;stroke:#e30016;stroke-width:0.0757767;stroke-linecap:butt;stroke-linejoin:bevel;stroke-dasharray:none"
       d="m 125.23088,65.300073 c -4.32264,-0.004 -8.46981,1.71158 -11.52835,4.76619 -3.0585,3.05465 -4.77788,7.22006 -4.78058,11.542741 v 31.822356 c -0.003,4.32263 1.71155,8.46914 4.76619,11.52766 3.05462,3.05853 7.21941,4.7785 11.54205,4.78127 4.32264,0.004 8.46981,-1.71223 11.52835,-4.76689 3.0585,-3.05463 4.77846,-7.21936 4.78127,-11.54204 V 81.609004 c 0.003,-4.322681 -1.71224,-8.46916 -4.76688,-11.527661 -3.05462,-3.05851 -7.21941,-4.7786 -11.54205,-4.78127 z m 0,9.24803 c 1.87133,0.001 3.674,0.74588 4.99642,2.06996 1.32239,1.324141 2.06484,3.1195 2.06379,4.990941 v 31.822356 c -2.1e-4,1.87208 -0.74398,3.66871 -2.06791,4.99231 -1.32388,1.32359 -3.12028,2.06812 -4.9923,2.0679 -1.87144,-10e-4 -3.67469,-0.74576 -4.9971,-2.06996 -1.3224,-1.32408 -2.06485,-3.11881 -2.0638,-4.99025 V 81.609004 c 0.001,-1.871441 0.74588,-3.674691 2.06996,-4.997101 1.32414,-1.3224 3.1195,-2.0638 4.99094,-2.0638 z" />
    <text
       xml:space="preserve"
       id="text555"
       style="font-weight:bold;font-size:10.5833px;line-height:1.25;font-family:sans-serif;-inkscape-font-specification:'sans-serif Bold';white-space:pre;shape-inside:url(#rect557)" />
  </g>
</svg>
